#N canvas 723 288 473 486 10;
#X msg 17 180 azi \$1;
#X msg 29 250 ele \$1;
#X obj 17 160 nbx 5 16 -1e+37 1e+37 0 0 empty empty empty 0 -9 0 10 #fcfcfc #000000 #000000 0 256;
#X obj 29 229 nbx 5 16 -1e+37 1e+37 0 0 empty empty empty 0 -9 0 10 #fcfcfc #000000 #000000 0 256;
#X text 75 159 Degrees;
#X obj 4 67 osc~ 440;
#N canvas 1155 23 377 1016 BINAURAL 0;
#X obj 5 332 s config;
#X msg 5 46 set binaural \$1;
#X obj 5 10 tgl 18 0 empty empty empty 0 -9 0 10 #fcfcfc #000000 #000000 0 1;
#X text 29 10 Binaural On/Off;
#X msg 37 158 set binaural hrtf \$1;
#X text 102 135 Set Binaural hrtf file;
#X msg 37 116 symbol /path/to/sofa/file/mysofa.sofa;
#X obj 64 196 tgl 18 0 empty empty empty 0 -9 0 10 #fcfcfc #000000 #000000 0 1;
#X msg 64 225 set binaural lowcpu \$1;
#X connect 1 0 0 0;
#X connect 2 0 1 0;
#X connect 4 0 0 0;
#X connect 6 0 4 0;
#X connect 7 0 8 0;
#X connect 8 0 0 0;
#X restore 278 121 pd BINAURAL;
#N canvas 769 403 381 256 SPEAKERS 0;
#X obj 7 62 s config;
#X msg 7 9 set speakers number 4;
#X msg 18 31 set speakers number 2;
#X connect 1 0 0 0;
#X connect 2 0 0 0;
#X restore 199 122 pd SPEAKERS;
#N canvas 1538 23 376 1016 ENCODER 0;
#X obj 6 261 s config;
#X msg 6 43 set encoder gain \$1;
#X obj 6 20 nbx 5 16 0.01 1 1 1 empty empty empty 0 -9 0 10 #fcfcfc #000000 #000000 0.109411 256;
#X obj 25 68 nbx 5 16 -1e+37 1e+37 0 0 empty empty empty 0 -9 0 10 #fcfcfc #000000 #000000 0 256;
#X msg 25 97 set encoder orderweight 1 \$1;
#X msg 36 222 set encoder coeff \$1 \$2;
#N canvas 1538 23 376 1016 (subpatch) 0;
#X obj 9 9 nbx 5 16 -1e+37 1e+37 0 1 empty empty Channel 60 9 0 10 #fcfcfc #000000 #000000 1 256;
#X obj 9 31 nbx 5 16 -1e+37 1e+37 0 1 empty empty Coeff 60 9 0 10 #fcfcfc #000000 #000000 50 256;
#X obj 7 155 list;
#X obj 7 177 outlet;
#X obj 7 111 f;
#X obj 50 74 t b f;
#X obj 6 73 t b f;
#X connect 0 0 6 0;
#X connect 1 0 5 0;
#X connect 2 0 3 0;
#X connect 4 0 2 0;
#X connect 5 0 4 0;
#X connect 5 1 2 1;
#X connect 6 0 4 0;
#X connect 6 1 4 1;
#X coords 0 -1 1 1 110 45 1 5 5;
#X restore 36 160 pd;
#X connect 1 0 0 0;
#X connect 2 0 1 0;
#X connect 3 0 4 0;
#X connect 4 0 0 0;
#X connect 5 0 0 0;
#X connect 6 0 5 0;
#X restore 199 144 pd ENCODER;
#X f 11;
#N canvas 1443 23 471 1016 DECODER 0;
#X obj 6 261 s config;
#N canvas 1538 23 376 1016 (subpatch) 0;
#X obj 9 9 nbx 5 16 -1e+37 1e+37 0 0 empty empty Channel 60 9 0 10 #fcfcfc #000000 #000000 0 256;
#X obj 9 31 nbx 5 16 -1e+37 1e+37 0 0 empty empty Order 60 9 0 10 #fcfcfc #000000 #000000 0 256;
#X obj 9 181 pack f f f;
#X obj 9 51 nbx 5 16 -1e+37 1e+37 0 0 empty empty Coeff 60 9 0 10 #fcfcfc #000000 #000000 0 256;
#X obj 9 203 outlet;
#X obj 96 98 t b f;
#X obj 46 98 t b f;
#X connect 0 0 2 0;
#X connect 1 0 6 0;
#X connect 2 0 4 0;
#X connect 3 0 5 0;
#X connect 5 0 2 0;
#X connect 5 1 2 2;
#X connect 6 0 2 0;
#X connect 6 1 2 1;
#X coords 0 -1 1 1 110 70 1 5 5;
#X restore 36 141 pd;
#X msg 36 222 set decoder coeff \$1 \$2 \$3;
#N canvas 1538 23 376 1016 (subpatch) 0;
#X obj 9 9 nbx 5 16 -1e+37 1e+37 0 0 empty empty Channel 60 9 0 10 #fcfcfc #000000 #000000 0 256;
#X obj 9 31 nbx 5 16 1 7 0 0 empty empty Order 60 9 0 10 #fcfcfc #000000 #000000 0 256;
#X obj 9 181 pack f f f;
#X obj 9 51 nbx 5 16 -1e+37 1e+37 0 0 empty empty Coeff 60 9 0 10 #fcfcfc #000000 #000000 0 256;
#X obj 9 203 outlet;
#X obj 96 98 t b f;
#X obj 46 98 t b f;
#X connect 0 0 2 0;
#X connect 1 0 6 0;
#X connect 2 0 4 0;
#X connect 3 0 5 0;
#X connect 5 0 2 0;
#X connect 5 1 2 2;
#X connect 6 0 2 0;
#X connect 6 1 2 1;
#X coords 0 -1 1 1 110 70 1 5 5;
#X restore 6 23 pd;
#X msg 6 102 set decoder orderweight \$1 \$2 \$3;
#X connect 1 0 2 0;
#X connect 2 0 0 0;
#X connect 3 0 4 0;
#X connect 4 0 0 0;
#X restore 277 143 pd DECODER;
#X obj 90 322 r config;
#X obj 5 92 *~ 0.2;
#N canvas 1272 23 642 1016 (subpatch) 0;
#X obj 50 180 hsl 153 18 -180 180 0 0 empty empty empty -2 -9 0 10 #fcfcfc #000000 #000000 0 1;
#X obj 47 66 metro 50;
#X obj 47 89 int;
#X obj 47 112 + 1;
#X obj 47 135 % 360;
#X obj 47 158 - 180;
#X obj 47 33 loadbang;
#X obj 47 203 outlet;
#X connect 0 0 7 0;
#X connect 1 0 2 0;
#X connect 2 0 3 0;
#X connect 3 0 2 1;
#X connect 3 0 4 0;
#X connect 4 0 5 0;
#X connect 5 0 0 0;
#X connect 6 0 1 0;
#X restore 17 114 pd;
#X obj 32 210 hsl 153 12 0 127 0 0 empty empty empty -2 -9 0 10 #fcfcfc #000000 #000000 0 1;
#X obj 20 143 hsl 153 12 -180 180 0 0 empty empty empty -2 -9 0 10 #fcfcfc #000000 #000000 0 1;
#X obj 98 271 nbx 5 16 -1e+37 1e+37 0 0 empty empty empty 0 -9 0 10 #fcfcfc #000000 #000000 0 256;
#X obj 101 252 hsl 153 12 0 127 0 0 empty empty empty -2 -9 0 10 #fcfcfc #000000 #000000 0 1;
#X msg 98 292 dis \$1;
#X obj 2 2 cnv 18 400 20 empty empty [ambi~]\ -\ by\ Charles\ K.\ Neimog 10 10 0 15 #e0e0e0 #404040 0;
#X text 196 82 Check in how to configure things here, f 26;
#N canvas 0 50 450 250 (subpatch) 0;
#X coords 0 1 100 -1 183 103 1;
#X restore 185 71 graph;
#X text 2 29 [ambi~] can be used to encode mono signals to Ambisonics \, to decode Ambisonics to loudspeakers or to binaural.;
#X obj 5 369 ambi~ 2 -m, f 21;
#X obj 5 456 dac~ -m, f 21;
#X msg 31 414 set 1 2;
#X connect 0 0 22 0;
#X connect 1 0 22 0;
#X connect 2 0 0 0;
#X connect 3 0 1 0;
#X connect 5 0 11 0;
#X connect 10 0 22 0;
#X connect 11 0 22 0;
#X connect 12 0 14 0;
#X connect 13 0 3 0;
#X connect 14 0 2 0;
#X connect 15 0 17 0;
#X connect 16 0 15 0;
#X connect 17 0 22 0;
#X connect 22 0 23 0;
#X connect 24 0 23 0;
